# xmcd CD database file
#
# Track frame offsets:
#	150
#	20420
#	43398
#	60241
#	74772
#	92074
#	105719
#	122380
#	138563
#	151096
#	165232
#	181540
#	197029
#	215534
#
# Disc length: 3068 seconds
#
# Revision: 0
# Processed by: cddbd v1.5.2PL0 Copyright (c) Steve Scherf et al.
# Submitted via: jetAudio 7
#
DISCID=b80bfa0e
DTITLE=錄古箏 - 帝女花
DYEAR=1900
DGENRE=장르 없음
TTITLE0=帝女花
TTITLE1=禪院鍾聲
TTITLE2=舊夢不須記
TTITLE3=風雨同路
TTITLE4=不裝飾你的夢
TTITLE5=雨忘煙水裏
TTITLE6=啼笑姻緣
TTITLE7=偏偏喜欢你
TTITLE8=萬水千山總是情
TTITLE9=京華春夢
TTITLE10=浪子心聲
TTITLE11=千王之王
TTITLE12=海山花
TTITLE13=顺流逆流
EXTD=
EXTT0=
EXTT1=
EXTT2=
EXTT3=
EXTT4=
EXTT5=
EXTT6=
EXTT7=
EXTT8=
EXTT9=
EXTT10=
EXTT11=
EXTT12=
EXTT13=
PLAYORDER=
